<svg id="visual" viewBox="0 0 900 600" width="900" height="600" xmlns="http://www.w3.org/2000/svg" xmlns:xlink="http://www.w3.org/1999/xlink" version="1.1"><rect x="0" y="0" width="900" height="600" fill="#111517"></rect><defs><linearGradient id="grad1_0" x1="33.3%" y1="0%" x2="100%" y2="100%"><stop offset="20%" stop-color="#111517" stop-opacity="1"></stop><stop offset="80%" stop-color="#111517" stop-opacity="1"></stop></linearGradient></defs><defs><linearGradient id="grad2_0" x1="0%" y1="0%" x2="66.7%" y2="100%"><stop offset="20%" stop-color="#111517" stop-opacity="1"></stop><stop offset="80%" stop-color="#111517" stop-opacity="1"></stop></linearGradient></defs><g transform="translate(900, 0)"><path d="M0 486.7C-48.5 441.6 -97 396.5 -156.5 377.9C-216 359.2 -286.4 367 -339.4 339.4C-392.4 311.8 -428 248.7 -449.7 186.3C-471.4 123.8 -479.1 61.9 -486.7 0L0 0Z" fill="#FBAE3C"></path></g><g transform="translate(0, 600)"><path d="M0 -486.7C46.8 -439.3 93.5 -391.8 155.4 -375.1C217.2 -358.4 294.1 -372.4 344.2 -344.2C394.3 -315.9 417.7 -245.4 437 -181C456.3 -116.6 471.5 -58.3 486.7 0L0 0Z" fill="#FBAE3C"></path></g></svg>