<svg id="visual" viewBox="0 0 900 600" width="900" height="600" xmlns="http://www.w3.org/2000/svg" xmlns:xlink="http://www.w3.org/1999/xlink" version="1.1"><rect x="0" y="0" width="900" height="600" fill="#111517"></rect><defs><linearGradient id="grad1_0" x1="33.3%" y1="0%" x2="100%" y2="100%"><stop offset="20%" stop-color="#111517" stop-opacity="1"></stop><stop offset="80%" stop-color="#111517" stop-opacity="1"></stop></linearGradient></defs><defs><linearGradient id="grad2_0" x1="0%" y1="0%" x2="66.7%" y2="100%"><stop offset="20%" stop-color="#111517" stop-opacity="1"></stop><stop offset="80%" stop-color="#111517" stop-opacity="1"></stop></linearGradient></defs><g transform="translate(900, 0)"><path d="M0 297.5C-10.1 263.4 -20.2 229.3 -28.3 215.1C-36.5 201 -42.7 206.7 -61.1 228C-79.4 249.2 -109.9 286 -109.4 264.2C-108.9 242.5 -77.4 162.3 -89.5 155C-101.6 147.8 -157.2 213.5 -166.8 217.4C-176.4 221.2 -140.1 163.1 -155.6 155.6C-171 148 -238.2 190.9 -236 181.1C-233.8 171.2 -162.3 108.6 -147.2 85C-132.2 61.4 -173.6 76.7 -179.2 74.2C-184.8 71.8 -154.6 51.6 -158.4 42.4C-162.2 33.3 -200.2 35.4 -229 30.2C-257.9 24.9 -277.7 12.5 -297.5 0L0 0Z" fill="#FBAE3C"></path></g><g transform="translate(0, 600)"><path d="M0 -297.5C12.7 -291.5 25.4 -285.6 37.1 -281.6C48.7 -277.5 59.3 -275.3 74.3 -277.2C89.2 -279.1 108.5 -285.2 106 -255.9C103.5 -226.7 79.4 -162.1 90.5 -156.8C101.6 -151.4 148 -205.1 160.7 -209.4C173.4 -213.8 152.3 -168.7 147.8 -147.8C143.2 -126.8 155.2 -130 173 -132.7C190.7 -135.4 214.3 -137.8 234.7 -135.5C255.1 -133.2 272.3 -126.3 274.8 -113.8C277.3 -101.4 265.1 -83.3 257.9 -69.1C250.7 -54.9 248.4 -44.6 255.8 -33.7C263.2 -22.8 280.3 -11.4 297.5 0L0 0Z" fill="#FBAE3C"></path></g></svg>